<mxfile host="app.diagrams.net" agent="Mozilla/5.0 (Windows NT 10.0; Win64; x64) AppleWebKit/537.36 (KHTML, like Gecko) Chrome/141.0.0.0 Safari/537.36" version="28.2.7">
  <diagram name="Page-1" id="efa7a0a1-bf9b-a30e-e6df-94a7791c09e9">
    <mxGraphModel dx="541" dy="535" grid="1" gridSize="10" guides="1" tooltips="1" connect="1" arrows="1" fold="1" page="1" pageScale="1" pageWidth="826" pageHeight="1169" background="none" math="0" shadow="0">
      <root>
        <mxCell id="0" />
        <mxCell id="1" parent="0" />
        <mxCell id="25" value="&lt;p style=&quot;margin: 0px; margin-top: 4px; text-align: center; text-decoration: underline;&quot;&gt;&lt;strong&gt;users&lt;/strong&gt;&lt;/p&gt;&lt;hr&gt;&lt;table align=&quot;center&quot; style=&quot;background-color: transparent; color: light-dark(rgb(0, 51, 102), rgb(161, 205, 249));&quot;&gt;&lt;tbody&gt;&lt;tr&gt;&lt;td&gt;_id_:&lt;/td&gt;&lt;td&gt;_id&lt;/td&gt;&lt;td&gt;unique&lt;/td&gt;&lt;/tr&gt;&lt;tr&gt;&lt;td&gt;username_index:&lt;/td&gt;&lt;td&gt;username&lt;/td&gt;&lt;td&gt;unique&lt;/td&gt;&lt;/tr&gt;&lt;tr&gt;&lt;td&gt;email_index:&lt;/td&gt;&lt;td&gt;email&lt;/td&gt;&lt;td&gt;unique&lt;/td&gt;&lt;/tr&gt;&lt;tr&gt;&lt;td&gt;&lt;br&gt;&lt;/td&gt;&lt;td&gt;&lt;br&gt;&lt;/td&gt;&lt;td&gt;&lt;br&gt;&lt;/td&gt;&lt;/tr&gt;&lt;/tbody&gt;&lt;/table&gt;&lt;br&gt;&lt;p&gt;&lt;/p&gt;" style="verticalAlign=top;align=left;overflow=fill;fontSize=12;fontFamily=Helvetica;html=1;strokeColor=#003366;shadow=1;fillColor=#D4E1F5;fontColor=#003366" parent="1" vertex="1">
          <mxGeometry x="110" y="41.64" width="230" height="98.36" as="geometry" />
        </mxCell>
        <mxCell id="1bCQR22PjD4e2PDbR59C-114" value="&lt;p style=&quot;margin: 0px; margin-top: 4px; text-align: center; text-decoration: underline;&quot;&gt;&lt;b&gt;questions&lt;/b&gt;&lt;/p&gt;&lt;hr&gt;&lt;table style=&quot;background-color: transparent; color: light-dark(rgb(0, 51, 102), rgb(161, 205, 249));&quot;&gt;&lt;tbody&gt;&lt;tr&gt;&lt;td&gt;_id_:&lt;/td&gt;&lt;td&gt;_id&lt;/td&gt;&lt;td&gt;unique&lt;/td&gt;&lt;/tr&gt;&lt;tr&gt;&lt;td&gt;QID_index:&lt;/td&gt;&lt;td&gt;QID&lt;/td&gt;&lt;td&gt;unique&lt;/td&gt;&lt;/tr&gt;&lt;tr&gt;&lt;td&gt;topic_index:&lt;/td&gt;&lt;td&gt;topic&lt;/td&gt;&lt;td&gt;&lt;br&gt;&lt;/td&gt;&lt;/tr&gt;&lt;tr&gt;&lt;td&gt;difficulty_index:&lt;/td&gt;&lt;td&gt;difficulty&lt;/td&gt;&lt;td&gt;&lt;br&gt;&lt;/td&gt;&lt;/tr&gt;&lt;tr&gt;&lt;td&gt;title_text_index:&lt;/td&gt;&lt;td&gt;title&lt;/td&gt;&lt;td&gt;&quot;text&quot; index&lt;/td&gt;&lt;/tr&gt;&lt;tr&gt;&lt;td&gt;&lt;br&gt;&lt;/td&gt;&lt;td&gt;&lt;/td&gt;&lt;td&gt;&lt;br&gt;&lt;/td&gt;&lt;/tr&gt;&lt;/tbody&gt;&lt;/table&gt;&lt;br&gt;&lt;p&gt;&lt;/p&gt;" style="verticalAlign=top;align=left;overflow=fill;fontSize=12;fontFamily=Helvetica;html=1;strokeColor=#003366;shadow=1;fillColor=#D4E1F5;fontColor=#003366" parent="1" vertex="1">
          <mxGeometry x="360" y="21.64" width="290" height="138.36" as="geometry" />
        </mxCell>
        <mxCell id="1bCQR22PjD4e2PDbR59C-115" value="&lt;p style=&quot;margin: 0px; margin-top: 4px; text-align: center; text-decoration: underline;&quot;&gt;&lt;b&gt;collaboration_sessions&lt;/b&gt;&lt;/p&gt;&lt;hr&gt;&lt;table style=&quot;background-color: transparent; color: light-dark(rgb(0, 51, 102), rgb(161, 205, 249));&quot;&gt;&lt;tbody&gt;&lt;tr&gt;&lt;td&gt;_id_:&lt;/td&gt;&lt;td&gt;_id&lt;/td&gt;&lt;td&gt;unique&lt;/td&gt;&lt;/tr&gt;&lt;tr&gt;&lt;td&gt;language_index:&lt;/td&gt;&lt;td&gt;language&lt;/td&gt;&lt;td&gt;&lt;br&gt;&lt;/td&gt;&lt;/tr&gt;&lt;tr&gt;&lt;td&gt;status_index:&lt;/td&gt;&lt;td&gt;status&lt;/td&gt;&lt;td&gt;&lt;br&gt;&lt;/td&gt;&lt;/tr&gt;&lt;tr&gt;&lt;td&gt;participants.userId_index:&lt;/td&gt;&lt;td&gt;participants.userId&lt;/td&gt;&lt;td&gt;&lt;br&gt;&lt;/td&gt;&lt;/tr&gt;&lt;tr&gt;&lt;td&gt;&lt;br&gt;&lt;/td&gt;&lt;td&gt;&lt;br&gt;&lt;/td&gt;&lt;td&gt;&lt;br&gt;&lt;/td&gt;&lt;/tr&gt;&lt;/tbody&gt;&lt;/table&gt;&lt;br&gt;&lt;p&gt;&lt;/p&gt;" style="verticalAlign=top;align=left;overflow=fill;fontSize=12;fontFamily=Helvetica;html=1;strokeColor=#003366;shadow=1;fillColor=#D4E1F5;fontColor=#003366" parent="1" vertex="1">
          <mxGeometry x="200" y="180" width="290" height="120" as="geometry" />
        </mxCell>
      </root>
    </mxGraphModel>
  </diagram>
</mxfile>
